<?xml version="1.0" standalone="no"?>
<!DOCTYPE svg PUBLIC "-//W3C//DTD SVG 1.1//EN" "http://www.w3.org/Graphics/SVG/1.1/DTD/svg11.dtd" >
<svg xmlns="http://www.w3.org/2000/svg" xmlns:xlink="http://www.w3.org/1999/xlink" version="1.1">
<metadata>
Created by FontForge 20190801 at Fri Jan  3 14:46:24 2025
 By root
Copyright GGBotNet 2020
</metadata>
<defs>
<font id="PixelatedElegance" horiz-adv-x="1365" >
  <font-face 
    font-family="Pixelated Elegance"
    font-weight="400"
    font-stretch="normal"
    units-per-em="2048"
    panose-1="0 0 6 0 0 0 0 0 0 0"
    ascent="1638"
    descent="-410"
    x-height="1365"
    cap-height="1592"
    bbox="0 -228 2048 1592"
    underline-thickness="0"
    underline-position="0"
    unicode-range="U+0020-007E"
  />
<missing-glyph horiz-adv-x="748" 
d="M68 0v1365h544v-1365h-544zM136 68h408v1229h-408v-1229z" />
    <glyph glyph-name=".notdef" horiz-adv-x="748" 
d="M68 0v1365h544v-1365h-544zM136 68h408v1229h-408v-1229z" />
    <glyph glyph-name=".null" horiz-adv-x="0" 
 />
    <glyph glyph-name="nonmarkingreturn" horiz-adv-x="682" 
 />
    <glyph glyph-name="space" unicode=" " horiz-adv-x="910" 
 />
    <glyph glyph-name="exclam" unicode="!" horiz-adv-x="455" 
d="M0 0h227v227h-227v-227zM0 455h227v227v228v227v228v227h-227v-227v-228v-227v-228v-227z" />
    <glyph glyph-name="quotedbl" unicode="&#x22;" horiz-adv-x="910" 
d="M0 1137h227v228v227h-227v-227v-228zM455 1137h227v228v227h-227v-227v-228z" />
    <glyph glyph-name="numbersign" unicode="#" 
d="M0 455h227v-228v-227h228v227v228h227v-228v-227h228v227v228h227v227h-227v228h227v227h-227v228v227h-228v-227v-228h-227v228v227h-228v-227v-228h-227v-227h227v-228h-227v-227zM455 682v228h227v-228h-227z" />
    <glyph glyph-name="dollar" unicode="$" 
d="M0 227h227v228h-227v-228zM0 910h227v227h-227v-227zM227 0h228v-228h227v228h228v227h-228v228v227h228v228h-228v227h228h227v228h-227h-228v227h-227v-227h-228v-228h228v-227h-228v-228h228v-227v-228h-228v-227zM910 227h227v228v227h-227v-227v-228z" />
    <glyph glyph-name="percent" unicode="%" horiz-adv-x="1820" 
d="M0 0h227v227h-227v-227zM227 227h228v228h-228v-228zM227 1137h228h227v228v227h-227h-228v-227v-228zM455 455h227v227h-227v-227zM682 682h228v228h-228v-228zM910 0h227h228v227v228h-228h-227v-228v-227zM910 910h227v227h-227v-227zM1137 1137h228v228h-228v-228z
M1365 1365h227v227h-227v-227z" />
    <glyph glyph-name="ampersand" unicode="&#x26;" horiz-adv-x="1592" 
d="M0 227h227v228h-227v-228zM0 1137h227v228h-227v-228zM227 0h228h227h228v227h-228h-227h-228v-227zM227 455h228v227h-228v-227zM227 910h228v227h-228v-227zM227 1365h228h227v227h-227h-228v-227zM455 682h227v228h-227v-228zM682 455h228v227h-228v-227zM682 910h228
v227v228h-228v-228v-227zM910 227h227v228h-227v-228zM1137 0h228v227h-228v-227zM1137 455h228v227v228h-228v-228v-227z" />
    <glyph glyph-name="quotesingle" unicode="'" horiz-adv-x="455" 
d="M0 1137h227v228v227h-227v-227v-228z" />
    <glyph glyph-name="parenleft" unicode="(" horiz-adv-x="1137" 
d="M0 227h227v228v227v228v227h-227v-227v-228v-227v-228zM227 0h228v227h-228v-227zM227 1137h228v228h-228v-228zM455 -228h227v228h-227v-228zM455 1365h227h228v227h-228h-227v-227z" />
    <glyph glyph-name="parenright" unicode=")" horiz-adv-x="1137" 
d="M0 1365h227h228v227h-228h-227v-227zM227 -228h228v228h-228v-228zM455 0h227v227h-227v-227zM455 1137h227v228h-227v-228zM682 227h228v228v227v228v227h-228v-227v-228v-227v-228z" />
    <glyph glyph-name="asterisk" unicode="*" horiz-adv-x="910" 
d="M0 682h227v228h-227v-228zM0 1137h227v-227h228v227h227v228h-227v227h-228v-227h-227v-228zM455 682h227v228h-227v-228z" />
    <glyph glyph-name="plus" unicode="+" horiz-adv-x="910" 
d="M0 682h227v-227h228v227h227v228h-227v227h-228v-227h-227v-228z" />
    <glyph glyph-name="comma" unicode="," horiz-adv-x="682" 
d="M0 -228h227v228h-227v-228zM227 0h228v227h-228v-227z" />
    <glyph glyph-name="hyphen" unicode="-" horiz-adv-x="910" 
d="M0 682h227h228h227v228h-227h-228h-227v-228z" />
    <glyph glyph-name="period" unicode="." horiz-adv-x="455" 
d="M0 0h227v227h-227v-227z" />
    <glyph glyph-name="slash" unicode="/" horiz-adv-x="1820" 
d="M0 0h227v227h-227v-227zM227 227h228v228h-228v-228zM455 455h227v227h-227v-227zM682 682h228v228h-228v-228zM910 910h227v227h-227v-227zM1137 1137h228v228h-228v-228zM1365 1365h227v227h-227v-227z" />
    <glyph glyph-name="zero" unicode="0" 
d="M0 227h227v228v227v228v227v228h-227v-228v-227v-228v-227v-228zM227 0h228h227h228v227h-228h-227h-228v-227zM227 1365h228h227h228v227h-228h-227h-228v-227zM910 227h227v228v227v228v227v228h-227v-228v-227v-228v-227v-228z" />
    <glyph glyph-name="one" unicode="1" horiz-adv-x="910" 
d="M0 0h227h228h227v227h-227v228v227v228v227v228v227h-228v-227h-227v-228h227v-227v-228v-227v-228h-227v-227z" />
    <glyph glyph-name="two" unicode="2" 
d="M0 0h227h228h227h228h227v227v228h-227v-228h-228h-227h-228v228h-227v-228v-227zM0 1137h227v228h-227v-228zM227 455h228v227h-228v-227zM227 1365h228h227h228v227h-228h-227h-228v-227zM455 682h227h228v228h-228h-227v-228zM910 910h227v227v228h-227v-228v-227z
" />
    <glyph glyph-name="three" unicode="3" 
d="M0 227h227v228v227h-227v-227v-228zM227 0h228h227h228v227h-228h-227h-228v-227zM227 1137h228v228h-228v-228zM455 682h227h228v228h-228h-227v-228zM455 1365h227h228v227h-228h-227v-227zM910 227h227v228v227h-227v-227v-228zM910 910h227v227v228h-227v-228v-227z
" />
    <glyph glyph-name="four" unicode="4" 
d="M0 455h227h228h227v-228h-227v-227h227h228h227v227h-227v228h227v227h-227v228v227v228v227h-228v-227h-227v-228h227v-227v-228h-227h-228v228h-227v-228v-227zM227 910h228v227h-228v-227z" />
    <glyph glyph-name="five" unicode="5" 
d="M0 227h227v228h-227v-228zM0 910h227v227v228h228h227h228v-228h227v228v227h-227h-228h-227h-228h-227v-227v-228v-227zM227 0h228h227h228v227h-228h-227h-228v-227zM227 682h228h227h228v228h-228h-227h-228v-228zM910 227h227v228v227h-227v-227v-228z" />
    <glyph glyph-name="six" unicode="6" 
d="M0 227h227v228v227h228h227h228v228h-228h-227h-228v227h-227v-227v-228v-227v-228zM227 0h228h227h228v227h-228h-227h-228v-227zM227 1137h228v228h-228v-228zM455 1365h227h228v227h-228h-227v-227zM910 227h227v228v227h-227v-227v-228zM910 1137h227v228h-227v-228z
" />
    <glyph glyph-name="seven" unicode="7" 
d="M0 1137h227v228h228h227h228v-228v-227h227v227v228v227h-227h-228h-227h-228h-227v-227v-228zM227 0h228v227v228h-228v-228v-227zM455 455h227v227h-227v-227zM682 682h228v228h-228v-228z" />
    <glyph glyph-name="eight" unicode="8" 
d="M0 227h227v228v227h-227v-227v-228zM0 910h227v227v228h-227v-228v-227zM227 0h228h227h228v227h-228h-227h-228v-227zM227 682h228h227h228v228h-228h-227h-228v-228zM227 1365h228h227h228v227h-228h-227h-228v-227zM910 227h227v228v227h-227v-227v-228zM910 910h227
v227v228h-227v-228v-227z" />
    <glyph glyph-name="nine" unicode="9" 
d="M0 227h227v228h-227v-228zM0 910h227v227v228h-227v-228v-227zM227 0h228h227h228v227h-228h-227h-228v-227zM227 682h228h227h228v-227v-228h227v228v227v228v227v228h-227v-228v-227h-228h-227h-228v-228zM227 1365h228h227h228v227h-228h-227h-228v-227z" />
    <glyph glyph-name="colon" unicode=":" horiz-adv-x="455" 
d="M0 0h227v227h-227v-227zM0 910h227v227h-227v-227z" />
    <glyph glyph-name="semicolon" unicode=";" horiz-adv-x="682" 
d="M0 -228h227v228h-227v-228zM227 0h228v227h-228v-227zM227 910h228v227h-228v-227z" />
    <glyph glyph-name="less" unicode="&#x3c;" horiz-adv-x="910" 
d="M0 682h227v228h-227v-228zM227 455h228v227h-228v-227zM227 910h228v227h-228v-227zM455 227h227v228h-227v-228zM455 1137h227v228h-227v-228z" />
    <glyph glyph-name="equal" unicode="=" horiz-adv-x="910" 
d="M0 455h227h228h227v227h-227h-228h-227v-227zM0 910h227h228h227v227h-227h-228h-227v-227z" />
    <glyph glyph-name="greater" unicode="&#x3e;" horiz-adv-x="910" 
d="M0 227h227v228h-227v-228zM0 1137h227v228h-227v-228zM227 455h228v227h-228v-227zM227 910h228v227h-228v-227zM455 682h227v228h-227v-228z" />
    <glyph glyph-name="question" unicode="?" 
d="M0 1137h227v228h-227v-228zM227 1365h228h227h228v227h-228h-227h-228v-227zM455 0h227v227h-227v-227zM455 455h227v227h-227v-227zM682 682h228v228h-228v-228zM910 910h227v227v228h-227v-228v-227z" />
    <glyph glyph-name="at" unicode="@" horiz-adv-x="1592" 
d="M0 227h227v228v227h-227v-227v-228zM0 1137h227v228h-227v-228zM227 0h228h227v227h-227h-228v-227zM227 682h228h227v228h-227h-228v-228zM227 1365h228h227h228h227v227h-227h-228h-227h-228v-227zM682 227h228v228v227h-228v-227v-228zM910 0h227v227h-227v-227z
M1137 227h228v228v227v228v227v228h-228v-228v-227v-228v-227v-228z" />
    <glyph glyph-name="A" unicode="A" horiz-adv-x="1820" 
d="M0 0h227h228h227v227h-227v228h227h228h227v-228h-227v-227h227h228h227v227h-227v228v227v228v227v228h-228v-228v-227v-228h-227h-228h-227v228v227h-228v-227v-228v-227v-228h-227v-227zM455 1137h227v228h-227v-228zM682 1365h228h227v227h-227h-228v-227z" />
    <glyph glyph-name="B" unicode="B" 
d="M0 0h227h228h227h228v227h-228h-227v228v227h227h228v228h-228h-227v227v228h227h228v227h-228h-227h-228h-227v-227h227v-228v-227v-228v-227v-228h-227v-227zM910 227h227v228v227h-227v-227v-228zM910 910h227v227v228h-227v-228v-227z" />
    <glyph glyph-name="C" unicode="C" 
d="M0 227h227v228v227v228v227h-227v-227v-228v-227v-228zM227 0h228h227h228v227h-228h-227h-228v-227zM227 1137h228v228h-228v-228zM455 1365h227h228v227h-228h-227v-227zM910 227h227v228h-227v-228zM910 910h227v227v228h-227v-228v-227z" />
    <glyph glyph-name="D" unicode="D" horiz-adv-x="1592" 
d="M0 0h227h228h227h228v227h-228h-227v228v227v228v227v228h227h228v227h-228h-227h-228h-227v-227h227v-228v-227v-228v-227v-228h-227v-227zM910 227h227v228h-227v-228zM910 1137h227v228h-227v-228zM1137 455h228v227v228v227h-228v-227v-228v-227z" />
    <glyph glyph-name="E" unicode="E" horiz-adv-x="1592" 
d="M0 0h227h228h227h228h227h228v227v228h-228v-228h-227h-228h-227v228v227h227h228v228h-228h-227v227v228h227h228h227v-228v-227h228v227v228v227h-228h-227h-228h-227h-228h-227v-227h227v-228v-227v-228v-227v-228h-227v-227z" />
    <glyph glyph-name="F" unicode="F" horiz-adv-x="1592" 
d="M0 0h227h228h227v227h-227v228v227h227h228v228h-228h-227v227v228h227h228h227v-228v-227h228v227v228v227h-228h-227h-228h-227h-228h-227v-227h227v-228v-227v-228v-227v-228h-227v-227z" />
    <glyph glyph-name="G" unicode="G" horiz-adv-x="1820" 
d="M0 455h227v227v228v227h-227v-227v-228v-227zM227 227h228v228h-228v-228zM227 1137h228v228h-228v-228zM455 0h227h228h227v227h-227h-228h-227v-227zM455 1365h227h228v227h-228h-227v-227zM682 682h228h227v-227v-228h228v228v227h227v228h-227h-228h-227h-228v-228z
M910 1137h227v228h-227v-228z" />
    <glyph glyph-name="H" unicode="H" horiz-adv-x="1820" 
d="M0 0h227h228h227v227h-227v228v227h227h228h227v-227v-228h-227v-227h227h228h227v227h-227v228v227v228v227v228h227v227h-227h-228h-227v-227h227v-228v-227h-227h-228h-227v227v228h227v227h-227h-228h-227v-227h227v-228v-227v-228v-227v-228h-227v-227z" />
    <glyph glyph-name="I" unicode="I" horiz-adv-x="910" 
d="M0 0h227h228h227v227h-227v228v227v228v227v228h227v227h-227h-228h-227v-227h227v-228v-227v-228v-227v-228h-227v-227z" />
    <glyph glyph-name="J" unicode="J" horiz-adv-x="1592" 
d="M0 227h227v228v227h-227v-227v-228zM227 0h228h227h228v227h-228h-227h-228v-227zM227 682h228v228h-228v-228zM682 1365h228v-228v-227v-228v-227v-228h227v228v227v228v227v228h228v227h-228h-227h-228v-227z" />
    <glyph glyph-name="K" unicode="K" horiz-adv-x="1820" 
d="M0 0h227h228h227v227h-227v228v227h227h228v228h-228h-227v227v228h227v227h-227h-228h-227v-227h227v-228v-227v-228v-227v-228h-227v-227zM910 0h227h228h227v227h-227v228h-228v-228h-227v-227zM910 455h227v227h-227v-227zM910 910h227v227h-227v-227zM910 1365h227
v-228h228v228h227v227h-227h-228h-227v-227z" />
    <glyph glyph-name="L" unicode="L" horiz-adv-x="1592" 
d="M0 0h227h228h227h228h227h228v227v228v227h-228v-227v-228h-227h-228h-227v228v227v228v227v228h227v227h-227h-228h-227v-227h227v-228v-227v-228v-227v-228h-227v-227z" />
    <glyph glyph-name="M" unicode="M" horiz-adv-x="2275" 
d="M0 0h227h228h227v227h-227v228v227v228v227h227v228h-227v227h-228h-227v-227h227v-228v-227v-228v-227v-228h-227v-227zM682 910h228v227h-228v-227zM910 455h227v227v228h-227v-228v-227zM1137 910h228v227h-228v-227zM1365 0h227h228h228v227h-228v228v227v228v227
v228h228v227h-228h-228v-227h-227v-228h227v-227v-228v-227v-228h-227v-227z" />
    <glyph glyph-name="N" unicode="N" horiz-adv-x="1820" 
d="M0 0h227h228h227v227h-227v228v227v228h227v227h-227v228v227h-228h-227v-227h227v-228v-227v-228v-227v-228h-227v-227zM682 682h228v228h-228v-228zM910 455h227v-228v-227h228h227v227h-227v228v227v228v227v228h227v227h-227h-228h-227v-227h227v-228v-227v-228h-227
v-227z" />
    <glyph glyph-name="O" unicode="O" horiz-adv-x="1592" 
d="M0 227h227v228v227v228v227h-227v-227v-228v-227v-228zM227 0h228h227h228v227h-228h-227h-228v-227zM227 1137h228v228h-228v-228zM455 1365h227h228h227v227h-227h-228h-227v-227zM910 227h227v228h-227v-228zM1137 455h228v227v228v227v228h-228v-228v-227v-228v-227z
" />
    <glyph glyph-name="P" unicode="P" horiz-adv-x="1592" 
d="M0 0h227h228h227v227h-227v228h227h228h227v227h-227h-228h-227v228v227v228h227h228h227v227h-227h-228h-227h-228h-227v-227h227v-228v-227v-228v-227v-228h-227v-227zM1137 682h228v228v227v228h-228v-228v-227v-228z" />
    <glyph glyph-name="Q" unicode="Q" horiz-adv-x="1592" 
d="M0 227h227v228v227v228v227h-227v-227v-228v-227v-228zM227 0h228h227h228v227h-228h-227h-228v-227zM227 1137h228v228h-228v-228zM455 1365h227h228v227h-228h-227v-227zM682 455h228v227h-228v-227zM910 227h227v228h-227v-228zM910 1137h227v228h-227v-228zM1137 0
h228v227h-228v-227zM1137 455h228v227v228v227h-228v-227v-228v-227z" />
    <glyph glyph-name="R" unicode="R" horiz-adv-x="1820" 
d="M0 0h227h228h227v227h-227v228v227h227h228v-227h227v227v228h-227h-228h-227v227v228h227h228h227v227h-227h-228h-227h-228h-227v-227h227v-228v-227v-228v-227v-228h-227v-227zM910 0h227h228h227v227h-227v228h-228v-228h-227v-227zM1137 910h228v227v228h-228v-228
v-227z" />
    <glyph glyph-name="S" unicode="S" horiz-adv-x="1592" 
d="M0 227h227v228v227h-227v-227v-228zM227 0h228h227h228h227v227h-227h-228h-227h-228v-227zM227 910h228v227v228h-228v-228v-227zM455 682h227h228v228h-228h-227v-228zM455 1365h227h228h227v227h-227h-228h-227v-227zM910 455h227v227h-227v-227zM1137 227h228v228
h-228v-228zM1137 910h228v227v228h-228v-228v-227z" />
    <glyph glyph-name="T" unicode="T" horiz-adv-x="1820" 
d="M0 910h227v227v228h228h227v-228v-227v-228v-227v-228h-227v-227h227h228h227v227h-227v228v227v228v227v228h227h228v-228v-227h227v227v228v227h-227h-228h-227h-228h-227h-228h-227v-227v-228v-227z" />
    <glyph glyph-name="U" unicode="U" horiz-adv-x="1820" 
d="M0 1365h227v-228v-227v-228v-227v-228h228v228v227v228v227v228h227v227h-227h-228h-227v-227zM455 0h227h228h227v227h-227h-228h-227v-227zM910 1365h227v-228v-227v-228v-227v-228h228v228v227v228v227v228h227v227h-227h-228h-227v-227z" />
    <glyph glyph-name="V" unicode="V" horiz-adv-x="1820" 
d="M0 1365h227v-228v-227h228v227v228h227v227h-227h-228h-227v-227zM455 455h227v227v228h-227v-228v-227zM682 0h228v227v228h-228v-228v-227zM910 455h227v227v228h-227v-228v-227zM910 1365h227v-228v-227h228v227v228h227v227h-227h-228h-227v-227z" />
    <glyph glyph-name="W" unicode="W" horiz-adv-x="2275" 
d="M0 1365h227v-228v-227v-228v-227v-228h228v228v227v228v227v228h227v227h-227h-228h-227v-227zM455 0h227h228v227h-228h-227v-227zM910 227h227v228v227v228v227v228h-227v-228v-227v-228v-227v-228zM1137 0h228h227v227h-227h-228v-227zM1365 1365h227v-228v-227v-228
v-227v-228h228v228v227v228v227v228h228v227h-228h-228h-227v-227z" />
    <glyph glyph-name="X" unicode="X" horiz-adv-x="1820" 
d="M0 0h227h228h227v227h-227v228h-228v-228h-227v-227zM0 1365h227v-228h228v228h227v227h-227h-228h-227v-227zM455 455h227v227h-227v-227zM455 910h227v227h-227v-227zM682 682h228v228h-228v-228zM910 0h227h228h227v227h-227v228h-228v-228h-227v-227zM910 455h227
v227h-227v-227zM910 910h227v227h-227v-227zM910 1365h227v-228h228v228h227v227h-227h-228h-227v-227z" />
    <glyph glyph-name="Y" unicode="Y" horiz-adv-x="1820" 
d="M0 1365h227v-228v-227h228v227v228h227v227h-227h-228h-227v-227zM455 0h227h228h227v227h-227v228v227h-228v-227v-228h-227v-227zM455 682h227v228h-227v-228zM910 682h227v228h-227v-228zM910 1365h227v-228v-227h228v227v228h227v227h-227h-228h-227v-227z" />
    <glyph glyph-name="Z" unicode="Z" 
d="M0 0h227h228h227h228h227v227v228h-227v-228h-228h-227h-228v228h-227v-228v-227zM0 1137h227v228h228h227h228v-228h227v228v227h-227h-228h-227h-228h-227v-227v-228zM227 455h228v227h-228v-227zM455 682h227v228h-227v-228zM682 910h228v227h-228v-227z" />
    <glyph glyph-name="bracketleft" unicode="[" horiz-adv-x="1137" 
d="M0 -228h227h228h227h228v228h-228h-227h-228v227v228v227v228v227v228h228h227h228v227h-228h-227h-228h-227v-227v-228v-227v-228v-227v-228v-227v-228z" />
    <glyph glyph-name="backslash" unicode="\" horiz-adv-x="1820" 
d="M0 1365h227v227h-227v-227zM227 1137h228v228h-228v-228zM455 910h227v227h-227v-227zM682 682h228v228h-228v-228zM910 455h227v227h-227v-227zM1137 227h228v228h-228v-228zM1365 0h227v227h-227v-227z" />
    <glyph glyph-name="bracketright" unicode="]" horiz-adv-x="1137" 
d="M0 -228h227h228h227h228v228v227v228v227v228v227v228v227h-228h-227h-228h-227v-227h227h228h227v-228v-227v-228v-227v-228v-227h-227h-228h-227v-228z" />
    <glyph glyph-name="asciicircum" unicode="^" 
d="M0 910h227v227h-227v-227zM227 1137h228v228h-228v-228zM455 1365h227v227h-227v-227zM682 1137h228v228h-228v-228zM910 910h227v227h-227v-227z" />
    <glyph glyph-name="underscore" unicode="_" 
d="M0 0h227h228h227h228h227v227h-227h-228h-227h-228h-227v-227z" />
    <glyph glyph-name="grave" unicode="`" horiz-adv-x="910" 
d="M227 1365h228v227h-228v-227zM455 1137h227v228h-227v-228z" />
    <glyph glyph-name="a" unicode="a" horiz-adv-x="1592" 
d="M0 227h227v228v227h-227v-227v-228zM227 0h228h227h228h227h228v227h-228v228v227v228v227h-227v-227h-228h-227h-228v-228h228h227h228v-227v-228h-228h-227h-228v-227zM227 1137h228h227h228v228h-228h-227h-228v-228z" />
    <glyph glyph-name="b" unicode="b" horiz-adv-x="1592" 
d="M0 0h227h228h227h228h227v227h-227h-228h-227v228v227v228h227h228v227h-228h-227v228v227h-228h-227v-227h227v-228v-227v-228v-227v-228h-227v-227zM910 682h227v228h-227v-228zM1137 227h228v228v227h-228v-227v-228z" />
    <glyph glyph-name="c" unicode="c" 
d="M0 227h227v228v227v228v227h-227v-227v-228v-227v-228zM227 0h228h227h228v227h-228h-227h-228v-227zM227 1137h228h227v228h-227h-228v-228zM682 910h228v227h-228v-227zM910 227h227v228h-227v-228z" />
    <glyph glyph-name="d" unicode="d" horiz-adv-x="1592" 
d="M0 227h227v228v227h-227v-227v-228zM227 0h228h227h228h227h228v227h-228v228v227v228v227v228h228v227h-228h-227v-227v-228h-228h-227v-227h227h228v-228v-227v-228h-228h-227h-228v-227zM227 682h228v228h-228v-228z" />
    <glyph glyph-name="e" unicode="e" horiz-adv-x="1592" 
d="M0 227h227v228h228h227h228v227h-228h-227h-228v228h-227v-228v-227v-228zM227 0h228h227h228h227v227h-227h-228h-227h-228v-227zM227 910h228v227h-228v-227zM455 1137h227h228v228h-228h-227v-228zM910 682h227v228v227h-227v-227v-228zM1137 227h228v228h-228v-228z
" />
    <glyph glyph-name="f" unicode="f" horiz-adv-x="1592" 
d="M0 910h227h228v-228v-227v-228h-228v-227h228h227h228v227h-228v228v227v228h228h227v227h-227h-228v228h-227v-228h-228h-227v-227zM682 1365h228h227h228v227h-228h-227h-228v-227z" />
    <glyph glyph-name="g" unicode="g" 
d="M0 455h227v227v228h-227v-228v-227zM227 -228h228h227h228v228h-228h-227h-228v-228zM227 227h228h227h228v-227h227v227v228v227v228v227v228h-227h-228h-227v-228h227h228v-227v-228v-227h-228h-227h-228v-228zM227 910h228v227h-228v-227z" />
    <glyph glyph-name="h" unicode="h" horiz-adv-x="1820" 
d="M0 0h227h228h227v227h-227v228v227h227v228h-227v227v228v227h-228h-227v-227h227v-228v-227v-228v-227v-228h-227v-227zM682 910h228h227v227h-227h-228v-227zM910 0h227h228h227v227h-227v228v227v228h-228v-228v-227v-228h-227v-227z" />
    <glyph glyph-name="i" unicode="i" 
d="M0 0h227h228h227h228h227v227h-227h-228v228v227v228v227h-227h-228v-227h228v-228v-227v-228h-228h-227v-227zM455 1365h227v227h-227v-227z" />
    <glyph glyph-name="j" unicode="j" 
d="M0 0h227v227v228h-227v-228v-227zM227 -228h228h227h228v228h-228h-227h-228v-228zM227 455h228v227h-228v-227zM910 0h227v227v228v227v228v227h-227v-227v-228v-227v-228v-227zM910 1365h227v227h-227v-227z" />
    <glyph glyph-name="k" unicode="k" horiz-adv-x="1592" 
d="M0 0h227h228h227v227h-227v228h227h228v227v228h-228v-228h-227v228v227v228v227h-228h-227v-227h227v-228v-227v-228v-227v-228h-227v-227zM682 1137h228v-227h227v227h228v228h-228h-227h-228v-228zM910 0h227h228v227h-228v228h-227v-228v-227z" />
    <glyph glyph-name="l" unicode="l" horiz-adv-x="910" 
d="M0 0h227h228h227v227h-227v228v227v228v227v228v227h-228h-227v-227h227v-228v-227v-228v-227v-228h-227v-227z" />
    <glyph glyph-name="m" unicode="m" horiz-adv-x="2275" 
d="M0 0h227h228v227v228v227v228v227h-228v-227v-228v-227v-228h-227v-227zM0 1137h227v228h-227v-228zM455 1137h227h228v228h-228h-227v-228zM910 0h227v227v228v227v228v227h-227v-227v-228v-227v-228v-227zM1137 1137h228h227v228h-227h-228v-228zM1592 0h228h228v227
h-228v228v227v228v227h-228v-227v-228v-227v-228v-227z" />
    <glyph glyph-name="n" unicode="n" horiz-adv-x="1820" 
d="M0 0h227h228h227v227h-227v228v227v228h227v227h-227v228h-228h-227v-228h227v-227v-228v-227v-228h-227v-227zM682 1137h228h227v228h-227h-228v-228zM910 0h227h228h227v227h-227v228v227v228v227h-228v-227v-228v-227v-228h-227v-227z" />
    <glyph glyph-name="o" unicode="o" 
d="M0 227h227v228v227v228v227h-227v-227v-228v-227v-228zM227 0h228h227h228v227h-228h-227h-228v-227zM227 1137h228h227h228v228h-228h-227h-228v-228zM910 227h227v228v227v228v227h-227v-227v-228v-227v-228z" />
    <glyph glyph-name="p" unicode="p" 
d="M0 -228h227v228v227h228h227h228v228h-228h-227h-228v227v228v227h-227v-227v-228v-227v-228v-227v-228zM227 1137h228h227v228h-227h-228v-228zM682 910h228v227h-228v-227zM910 455h227v227v228h-227v-228v-227z" />
    <glyph glyph-name="q" unicode="q" 
d="M0 455h227v227v228h-227v-228v-227zM227 227h228h227h228v-227v-228h227v228v227v228v227v228v227h-227v-227v-228v-227h-228h-227h-228v-228zM227 910h228v227h-228v-227zM455 1137h227h228v228h-228h-227v-228z" />
    <glyph glyph-name="r" unicode="r" horiz-adv-x="1592" 
d="M0 0h227h228h227v227h-227v228v227v228v227h-228v-227v-228v-227v-228h-227v-227zM0 1137h227v228h-227v-228zM455 1137h227h228h227v228h-227h-228h-227v-228zM910 682h227v228h-227v-228zM1137 910h228v227h-228v-227z" />
    <glyph glyph-name="s" unicode="s" 
d="M0 227h227v228h-227v-228zM0 910h227v227h-227v-227zM227 0h228h227h228v227h-228h-227h-228v-227zM227 682h228h227v228h-227h-228v-228zM227 1137h228h227h228v228h-228h-227h-228v-228zM682 455h228v227h-228v-227zM910 227h227v228h-227v-228zM910 910h227v227h-227
v-227z" />
    <glyph glyph-name="t" unicode="t" horiz-adv-x="1592" 
d="M0 910h227h228v-228v-227v-228h227v228v227v228h228h227v227h-227h-228v228v227h-227v-227v-228h-228h-227v-227zM682 0h228h227v227h-227h-228v-227zM1137 227h228v228v227h-228v-227v-228z" />
    <glyph glyph-name="u" unicode="u" horiz-adv-x="1820" 
d="M0 1137h227v-227v-228v-227v-228h228v228v227v228v227h227v228h-227h-228h-227v-228zM455 0h227h228v227h-228h-227v-227zM910 227h227v-227h228h227v227h-227v228v227v228v227h227v228h-227h-228h-227v-228h227v-227v-228v-227h-227v-228z" />
    <glyph glyph-name="v" unicode="v" horiz-adv-x="1820" 
d="M0 1137h227v-227v-228h228v228v227h227v228h-227h-228h-227v-228zM455 455h227v227h-227v-227zM682 0h228v227v228h-228v-228v-227zM910 455h227v227h-227v-227zM910 1137h227v-227v-228h228v228v227h227v228h-227h-228h-227v-228z" />
    <glyph glyph-name="w" unicode="w" horiz-adv-x="2275" 
d="M0 1137h227v-227v-228v-227v-228h228v228v227v228v227h227v228h-227h-228h-227v-228zM455 0h227h228v227h-228h-227v-227zM910 227h227v228v227v228v227h-227v-227v-228v-227v-228zM1137 0h228h227v227h-227h-228v-227zM1365 1137h227v-227v-228v-227v-228h228v228v227
v228v227h228v228h-228h-228h-227v-228z" />
    <glyph glyph-name="x" unicode="x" horiz-adv-x="1820" 
d="M0 0h227h228h227v227h-227v228h-228v-228h-227v-227zM0 1137h227v-227h228v227h227v228h-227h-228h-227v-228zM455 455h227v227h228v-227h227v227v228h-227h-228h-227v-228v-227zM910 0h227h228h227v227h-227v228h-228v-228h-227v-227zM910 1137h227v-227h228v227h227
v228h-227h-228h-227v-228z" />
    <glyph glyph-name="y" unicode="y" horiz-adv-x="1820" 
d="M0 0h227v227h-227v-227zM0 1137h227v-227v-228h228v228v227h227v228h-227h-228h-227v-228zM227 -228h228h227h228v228h-228h-227h-228v-228zM455 455h227h228h227v-228h228v228v227v228v227h227v228h-227h-228h-227v-228h227v-227v-228h-227h-228h-227v-227zM910 0h227
v227h-227v-227z" />
    <glyph glyph-name="z" unicode="z" 
d="M0 0h227h228h227h228h227v227v228h-227v-228h-228h-227h-228v228h-227v-228v-227zM0 910h227v227h228h227v-227h228v227v228h-228h-227h-228h-227v-228v-227zM227 455h228v227h-228v-227zM455 682h227v228h-227v-228z" />
    <glyph glyph-name="braceleft" unicode="{" horiz-adv-x="1137" 
d="M0 455h227v227v228h-227v-228v-227zM227 0h228v227v228h-228v-228v-227zM227 910h228v227v228h-228v-228v-227zM455 -228h227h228v228h-228h-227v-228zM455 1365h227h228v227h-228h-227v-227z" />
    <glyph glyph-name="bar" unicode="|" horiz-adv-x="455" 
d="M0 -228h227v228v227v228v227v228v227v228v227h-227v-227v-228v-227v-228v-227v-228v-227v-228z" />
    <glyph glyph-name="braceright" unicode="}" horiz-adv-x="1137" 
d="M0 -228h227h228v228h-228h-227v-228zM0 1365h227h228v227h-228h-227v-227zM455 0h227v227v228h-227v-228v-227zM455 910h227v227v228h-227v-228v-227zM682 455h228v227v228h-228v-228v-227z" />
    <glyph glyph-name="asciitilde" unicode="~" 
d="M0 682h227v228h-227v-228zM227 910h228v227h-228v-227zM455 682h227v228h-227v-228zM682 455h228v227h-228v-227zM910 682h227v228h-227v-228z" />
  </font>
</defs>
</svg>
