<?xml version="1.0" standalone="no"?>
<!DOCTYPE svg PUBLIC "-//W3C//DTD SVG 1.1//EN" "http://www.w3.org/Graphics/SVG/1.1/DTD/svg11.dtd" >
<svg xmlns="http://www.w3.org/2000/svg" xmlns:xlink="http://www.w3.org/1999/xlink" version="1.1">
<metadata>
Created by FontForge 20190801 at Mon Dec 30 01:19:16 2024
 By root
Copyright 2016 Google Inc. All Rights Reserved.
</metadata>
<defs>
<font id="SpaceMono-Regular" horiz-adv-x="612" >
  <font-face 
    font-family="Space Mono"
    font-weight="400"
    font-stretch="normal"
    units-per-em="1000"
    panose-1="2 0 5 9 4 0 0 2 0 4"
    ascent="800"
    descent="-200"
    x-height="496"
    cap-height="700"
    bbox="11 -200 601 856"
    underline-thickness="50"
    underline-position="-100"
    unicode-range="U+0020-007E"
  />
<missing-glyph 
d="M33 0v666h265v-666h-265zM66 33h199v600h-199v-600z" />
    <glyph glyph-name=".notdef" 
d="M33 0v666h265v-666h-265zM66 33h199v600h-199v-600z" />
    <glyph glyph-name=".null" horiz-adv-x="0" 
 />
    <glyph glyph-name="nonmarkingreturn" 
 />
    <glyph glyph-name="space" unicode=" " 
 />
    <glyph glyph-name="exclam" unicode="!" 
d="M236 56q0 30 20 50t50 20t50 -20t20 -50t-20 -50t-50 -20t-50 20t-20 50zM346 700v-514h-80v514h80z" />
    <glyph glyph-name="quotedbl" unicode="&#x22;" 
d="M327 644q0 29 21 50q20 20 49 20t49 -20q21 -21 21 -50q0 -22 -12 -40t-31 -25v-111h-54v111q-19 7 -31 25t-12 40zM145 644q0 29 21 50q20 20 49 20t49 -20q21 -21 21 -50q0 -22 -12 -40t-31 -25v-111h-54v111q-19 7 -31 25t-12 40z" />
    <glyph glyph-name="numbersign" unicode="#" 
d="M360 102v122h-108v-122h-72v122h-110v72h110v108h-110v72h110v122h72v-122h108v122h72v-122h110v-72h-110v-108h110v-72h-110v-122h-72zM360 404h-108v-108h108v108z" />
    <glyph glyph-name="dollar" unicode="$" 
d="M334 608q39 -7 64 -20q28 -15 48 -36q22 -23 31 -46q11 -27 11 -54v-18h-76v12q0 32 -22 56q-21 23 -56 32v-143q85 -11 126 -45q44 -36 44 -98v-6q0 -68 -46 -108t-124 -45v-61h-72v63q-46 8 -76 25t-52 42q-19 21 -30 52q-10 27 -10 58v24h76v-12q0 -48 24 -77
q24 -28 68 -39v163q-76 11 -114 43q-40 34 -40 94v6q0 32 12 56q11 22 34 42q20 17 49 28q31 11 59 14v62h72v-64zM426 242q0 36 -22 52q-24 18 -70 25v-158q43 4 68 26q24 21 24 55zM186 470q0 -29 16 -46t60 -25v139q-30 -4 -54 -22q-22 -16 -22 -46z" />
    <glyph glyph-name="percent" unicode="%" 
d="M346 556q0 -37 -12 -64q-12 -28 -32 -46q-21 -20 -48 -30q-26 -10 -55 -10t-55 10q-27 10 -48 30q-20 18 -32 46q-12 27 -12 64t12 64q12 28 32 46q21 20 48 30q26 10 55 10t55 -10q27 -10 48 -30q20 -18 32 -46q12 -27 12 -64zM199 460q40 0 63 26q24 27 24 70t-24 70
q-23 26 -63 26t-63 -26q-24 -27 -24 -70q0 -48 24 -72t63 -24zM561 144q0 -37 -12 -64q-12 -26 -33 -46q-22 -21 -46 -30q-26 -10 -56 -10t-56 10q-24 9 -46 30q-21 20 -33 46q-12 27 -12 64t12 64q12 26 33 46q22 21 46 30q26 10 56 10t56 -10q24 -9 46 -30q21 -20 33 -46
q12 -27 12 -64zM414 48q40 0 63 26q24 27 24 70t-24 70q-23 26 -63 26t-63 -26q-24 -27 -24 -70q0 -48 24 -72t63 -24zM531 494l24 -46l-473 -241l-24 46z" />
    <glyph glyph-name="ampersand" unicode="&#x26;" 
d="M580 312h-97v-312h-224q-49 0 -89 14q-39 13 -65 38q-25 23 -39 58q-14 34 -14 73v12q0 59 34 97q35 40 84 53v12q-49 13 -84 53q-34 38 -34 96v12q0 38 14 72q14 35 39 58q26 25 65 38q40 14 89 14h128v-78h-122q-59 0 -96 -30t-37 -80v-6q0 -53 35 -85q34 -31 95 -31
h137v106h84v-106h97v-78zM399 78v234h-137q-60 0 -95 -32t-35 -85v-6q0 -51 37 -81t96 -30h134z" />
    <glyph glyph-name="quotesingle" unicode="'" 
d="M236 644q0 30 20 50t50 20t50 -20t20 -50q0 -22 -12 -40t-31 -25v-111h-54v111q-19 7 -31 25t-12 40z" />
    <glyph glyph-name="parenleft" unicode="(" 
d="M546 -82v-74h-36q-68 0 -134 26q-61 24 -113 76q-50 50 -78 119q-29 72 -29 159v252q0 86 29 158q29 70 78 120q52 52 113 76q66 26 134 26h36v-74h-36q-52 0 -104 -22t-88 -61q-40 -43 -61 -97q-23 -58 -23 -130v-244q0 -72 23 -130q21 -54 61 -97q36 -39 88 -61
t104 -22h36z" />
    <glyph glyph-name="parenright" unicode=")" 
d="M102 -82q52 0 104 22t88 61q40 43 61 97q23 58 23 130v244q0 72 -23 130q-21 54 -61 97q-36 39 -88 61t-104 22h-36v74h36q68 0 134 -26q61 -24 113 -76q49 -50 78 -120q29 -72 29 -158v-252q0 -87 -29 -159q-28 -69 -78 -119q-52 -52 -113 -76q-66 -26 -134 -26h-36v74
h36z" />
    <glyph glyph-name="asterisk" unicode="*" 
d="M507 500l-88 -88l-50 -28l5 -12l45 14h135v-72h-135l-45 14l-5 -12l50 -28l88 -88l-51 -51l-88 88l-28 50l-12 -5l14 -45v-135h-72v135l14 45l-12 5l-28 -50l-88 -88l-51 51l88 88l50 28l-5 12l-45 -14h-135v72h135l45 -14l5 12l-50 28l-88 88l51 51l88 -88l28 -50l12 5
l-14 45v135h72v-135l-14 -45l12 -5l28 50l88 88z" />
    <glyph glyph-name="plus" unicode="+" 
d="M97 386h173v173h72v-173h173v-72h-173v-173h-72v173h-173v72z" />
    <glyph glyph-name="comma" unicode="," 
d="M236 56q0 30 20 50t50 20t50 -20t20 -50v-98q0 -32 -22 -56q-21 -22 -55 -22h-51v54h47q27 0 27 30v25q-8 -3 -17 -3q-29 0 -49 20t-20 50z" />
    <glyph glyph-name="hyphen" unicode="-" 
d="M156 296h300v-72h-300v72z" />
    <glyph glyph-name="period" unicode="." 
d="M236 56q0 30 20 50t50 20t50 -20t20 -50t-20 -50t-50 -20t-50 20t-20 50z" />
    <glyph glyph-name="slash" unicode="/" 
d="M417 806l70 -22l-291 -890l-71 22z" />
    <glyph glyph-name="zero" unicode="0" 
d="M60 428q0 135 65 211q65 75 181 75t181 -75q65 -76 65 -211v-156q0 -139 -65 -213q-64 -73 -181 -73t-181 73q-65 74 -65 213v156zM306 62q82 0 122 56t40 160v144q0 51 -10 88q-12 43 -30 68q-19 26 -52 44q-29 16 -70 16q-42 0 -71 -16q-31 -17 -51 -44
q-18 -25 -30 -68q-10 -37 -10 -88v-144q0 -104 40 -160t122 -56zM242 350q0 26 19 45t45 19t45 -19t19 -45t-19 -45t-45 -19t-45 19t-19 45z" />
    <glyph glyph-name="one" unicode="1" 
d="M269 78v585h-12l-115 -263h-83v6l131 294h163v-622h198v-78h-480v78h198z" />
    <glyph glyph-name="two" unicode="2" 
d="M544 78v-78h-474v120q0 49 16 84q16 34 46 60q33 28 71 43q44 17 95 29q89 20 128 57q40 38 40 91v6q0 28 -9 53q-10 27 -28 47q-21 23 -49 34q-30 12 -70 12q-78 0 -120 -47t-42 -125v-44h-84v50q0 50 16 92q17 45 47 78q32 35 77 54q48 20 106 20q61 0 106 -18
q42 -17 75 -50q31 -31 45 -68q14 -36 14 -79v-18q0 -79 -50 -137q-48 -55 -160 -80q-95 -21 -141 -56q-45 -35 -45 -100v-30h390z" />
    <glyph glyph-name="three" unicode="3" 
d="M237 348v116l228 146v12h-396v78h468v-128l-228 -146v-12h40q41 0 77 -13q39 -14 66 -38q28 -25 46 -61q17 -34 17 -85v-18q0 -45 -18 -84q-17 -37 -50 -67t-75 -46t-95 -16q-59 0 -106 18q-46 18 -80 50q-33 31 -51 74q-17 40 -17 90v54h84v-48q0 -36 13 -68
q12 -29 34 -50q22 -20 54 -31q33 -11 67 -11q31 0 61 11q28 10 50 31q21 20 33 46q12 27 12 56v6q0 62 -40 98q-41 36 -100 36h-94z" />
    <glyph glyph-name="four" unicode="4" 
d="M294 700h163v-490h108v-78h-108v-132h-84v132h-324v116zM121 222v-12h252v454h-12z" />
    <glyph glyph-name="five" unicode="5" 
d="M78 330v370h438v-78h-356v-250h12q13 23 26 38q19 21 38 33q23 15 48 23q24 8 60 8q49 0 88 -16q42 -17 70 -45q29 -29 46 -70q16 -39 16 -91v-18q0 -50 -16 -94q-17 -48 -47 -80q-32 -35 -77 -54q-48 -20 -106 -20q-62 0 -108 18q-47 18 -79 50q-33 32 -49 76
q-16 42 -16 94v28h84v-22q0 -82 46 -124t122 -42q42 0 70 14q30 15 52 40q19 22 30 56q10 31 10 68v6q0 32 -10 58q-10 25 -30 47q-18 19 -44 31q-27 12 -58 12q-20 0 -38 -6q-14 -5 -31 -16q-11 -7 -21 -21q-9 -12 -12 -23h-158z" />
    <glyph glyph-name="six" unicode="6" 
d="M453 496q0 65 -40 104q-42 40 -111 40q-34 0 -62 -12q-30 -13 -50 -34q-19 -21 -32 -54q-11 -29 -11 -68v-104h12q24 44 69 69q44 25 99 25q46 0 89 -16q40 -15 70 -45q29 -29 46 -73q17 -43 17 -96v-12q0 -49 -19 -95q-18 -43 -50 -74q-33 -31 -78 -48q-46 -17 -96 -17
t-96 17q-44 16 -78 47q-30 27 -50 74q-19 44 -19 93v255q0 56 19 100q19 45 52 76q35 33 76 49q45 17 94 17q50 0 93 -15t74 -43q30 -27 49 -70q17 -38 17 -90h-84zM306 60q36 0 66 12t50 32q22 22 32 50q11 30 11 64v12q0 36 -12 64q-12 29 -33 50q-20 20 -50 32t-64 12
t-63 -12q-31 -13 -51 -33q-21 -21 -33 -49t-12 -60v-19q0 -31 11 -61q10 -28 32 -50q20 -20 50 -32t66 -12z" />
    <glyph glyph-name="seven" unicode="7" 
d="M72 700h468v-122l-295 -446q-21 -32 -32 -55q-11 -24 -11 -47v-30h-82v36q0 12 4 34q3 17 10 32q9 19 20 36q3 5 12 19t15 23l287 430v12h-396v78z" />
    <glyph glyph-name="eight" unicode="8" 
d="M297 -14q-55 0 -96 14q-43 15 -74 40q-30 24 -47 60t-17 76v12q0 34 11 64q10 27 29 49q20 23 41 35q25 14 49 21v12q-24 8 -43 21q-23 16 -36 33q-15 20 -24 43q-9 24 -9 54v12q0 42 16 74q17 35 45 57q29 23 70 37q42 14 91 14h6q48 0 90 -14t71 -37q28 -22 45 -57
q16 -32 16 -74v-12q0 -30 -9 -54q-9 -23 -24 -43q-15 -19 -36 -33q-22 -14 -43 -21v-12q24 -7 49 -21q21 -12 41 -35q19 -22 29 -49q11 -30 11 -64v-12q0 -40 -17 -76t-47 -60q-31 -25 -74 -40q-41 -14 -96 -14h-18zM312 62q67 0 110 35t43 91v6q0 62 -43 96t-113 34h-6
q-70 0 -113 -34t-43 -96v-6q0 -56 43 -91t110 -35h12zM306 402q63 0 102 33t39 83v6q0 50 -39 82q-40 32 -102 32t-102 -32q-39 -32 -39 -82v-6q0 -50 39 -83t102 -33z" />
    <glyph glyph-name="nine" unicode="9" 
d="M159 204q0 -65 40 -104q42 -40 111 -40q34 0 62 12q30 13 50 34q18 20 32 54q11 28 11 68v104h-12q-23 -44 -66 -69t-100 -25q-49 0 -90 15t-71 45t-46 71q-17 43 -17 96v12q0 51 18 95q19 45 51 76q32 30 76 48q45 18 98 18t98 -18q44 -18 76 -48q34 -32 51 -74
q18 -44 18 -94v-252q0 -52 -19 -100q-18 -46 -50 -76q-34 -33 -77 -49q-45 -17 -95 -17t-94 15q-43 15 -74 43t-48 70t-17 90h84zM306 640q-36 0 -66 -12q-29 -12 -50 -34q-22 -24 -32 -52q-11 -31 -11 -63v-12q0 -35 12 -63q12 -29 33 -50q20 -20 50 -31t64 -11t63 12
q32 14 51 31q21 19 33 48t12 60v19q0 32 -11 62q-10 28 -32 50q-23 23 -50 34q-30 12 -66 12z" />
    <glyph glyph-name="colon" unicode=":" 
d="M236 56q0 30 20 50t50 20t50 -20t20 -50t-20 -50t-50 -20t-50 20t-20 50zM236 440q0 30 20 50t50 20t50 -20t20 -50t-20 -50t-50 -20t-50 20t-20 50z" />
    <glyph glyph-name="semicolon" unicode=";" 
d="M236 56q0 30 20 50t50 20t50 -20t20 -50v-98q0 -32 -22 -56q-21 -22 -55 -22h-51v54h47q27 0 27 30v25q-8 -3 -17 -3q-29 0 -49 20t-20 50zM236 440q0 30 20 50t50 20t50 -20t20 -50t-20 -50t-50 -20t-50 20t-20 50z" />
    <glyph glyph-name="less" unicode="&#x3c;" 
d="M97 274v152l418 144v-84l-388 -130v-12l388 -130v-84z" />
    <glyph glyph-name="equal" unicode="=" 
d="M97 458h418v-72h-418v72zM97 314h418v-72h-418v72z" />
    <glyph glyph-name="greater" unicode="&#x3e;" 
d="M97 130v84l388 130v12l-388 130v84l418 -144v-152z" />
    <glyph glyph-name="question" unicode="?" 
d="M352 366q44 0 74 33t30 87v6q0 32 -10 56q-11 27 -30 46q-17 17 -46 30q-27 12 -60 12q-72 0 -113 -44t-41 -116v-42h-84v48q0 43 16 88q15 43 45 74q30 32 75 51q44 19 104 19q49 0 92 -17q41 -16 72 -47q32 -32 47 -68q17 -40 17 -81v-18q0 -38 -14 -75
q-14 -36 -37 -61q-25 -26 -57 -41q-35 -16 -70 -16h-14q-28 0 -28 -30v-74h-80v94q0 38 24 62t62 24h26zM211 56q0 29 21 50q20 20 49 20t49 -20q21 -21 21 -50t-21 -50q-20 -20 -49 -20t-49 20q-21 21 -21 50z" />
    <glyph glyph-name="at" unicode="@" 
d="M78 510v72h290q92 0 144 -48t52 -148v-308q0 -32 -22 -56q-21 -22 -55 -22h-80q-37 0 -54 20t-17 46h-12q-12 -39 -40 -59q-29 -21 -76 -21q-36 0 -68 15t-54 43q-21 27 -35 68q-13 39 -13 91v18q0 51 13 90q14 43 35 69q22 28 54 43t66 15q46 0 70 -18q27 -20 42 -50h12
v54h78v-322q0 -30 27 -30h24q27 0 27 30v276q0 65 -30 98q-31 34 -96 34h-282zM223 60q29 0 51 11q19 9 32 31q12 20 18 45t6 56v18q0 29 -6 54q-6 27 -18 46q-12 20 -32 31q-21 12 -51 12q-25 0 -45 -11t-34 -31q-12 -17 -20 -45q-8 -27 -8 -56v-18q0 -63 28 -103t79 -40z
" />
    <glyph glyph-name="A" unicode="A" 
d="M456 174h-300l-51 -174h-90l212 700h158l212 -700h-90zM300 664l-121 -412h254l-121 412h-12z" />
    <glyph glyph-name="B" unicode="B" 
d="M57 78h60v544h-60v78h283q48 0 88 -14q38 -13 66 -38q26 -23 40 -58q13 -32 13 -72v-12q0 -29 -9 -53t-25 -43q-15 -18 -37 -32q-21 -13 -47 -21v-12q49 -13 84 -53q34 -38 34 -97v-12q0 -41 -13 -73q-14 -35 -40 -58q-28 -25 -66 -38q-40 -14 -88 -14h-283v78zM201 78
h133q58 0 96 30q37 30 37 81v6q0 53 -35 85t-95 32h-136v-234zM201 390h136q61 0 95 31q35 32 35 85v6q0 50 -37 80q-38 30 -96 30h-133v-232z" />
    <glyph glyph-name="C" unicode="C" 
d="M310 64q46 0 74 14q29 15 50 40q19 23 28 56q10 35 10 66v12h84v-12q0 -55 -16 -100q-17 -47 -47 -80q-32 -35 -77 -54q-48 -20 -106 -20q-117 0 -181 73q-65 74 -65 213v156q0 135 65 211q65 75 181 75q58 0 106 -20q45 -19 77 -54q30 -33 47 -80q16 -45 16 -100v-12
h-84v12q-2 37 -10 66t-30 56q-21 26 -49 40t-73 14q-81 0 -122 -59q-40 -58 -40 -155v-144q0 -103 40 -158q41 -56 122 -56z" />
    <glyph glyph-name="D" unicode="D" 
d="M73 700h230q130 0 190 -62t60 -198v-180q0 -136 -60 -198t-190 -62h-230v79h60v543h-60v78zM291 78q46 0 79 9q32 9 56 31q21 20 32 57q11 38 11 91v168q0 53 -11 91q-11 37 -32 57q-24 22 -56 31q-33 9 -79 9h-74v-544h74z" />
    <glyph glyph-name="E" unicode="E" 
d="M94 700h424v-78h-340v-232h334v-78h-334v-234h346v-78h-430v700z" />
    <glyph glyph-name="F" unicode="F" 
d="M95 700h430v-78h-346v-232h340v-78h-340v-312h-84v700z" />
    <glyph glyph-name="G" unicode="G" 
d="M239 336h312v-336h-78v84h-12q-17 -44 -60 -71t-100 -27q-113 0 -177 73q-65 74 -65 213v156q0 135 65 211q64 75 181 75q58 0 106 -20q45 -19 77 -54q30 -33 47 -80q16 -45 16 -100v-12h-84v12q0 34 -9 66q-8 29 -30 56q-21 25 -50 40q-28 14 -73 14q-80 0 -121 -59
t-41 -155v-144q0 -102 41 -158t123 -56q75 0 117 48q43 49 43 134v12h-228v78z" />
    <glyph glyph-name="H" unicode="H" 
d="M73 700h84v-310h298v310h84v-700h-84v312h-298v-312h-84v700z" />
    <glyph glyph-name="I" unicode="I" 
d="M84 700h444v-78h-180v-544h180v-78h-444v78h180v544h-180v78z" />
    <glyph glyph-name="J" unicode="J" 
d="M505 210q0 -110 -53 -166q-55 -58 -157 -58t-163 58q-59 56 -59 166v54h84v-54q0 -66 34 -106t104 -40t98 40t28 106v412h-72v78h216v-78h-60v-412z" />
    <glyph glyph-name="K" unicode="K" 
d="M173 0h-84v700h84v-310h23l269 310h104v-6l-290 -338v-12l302 -338v-6h-106l-279 312h-23v-312z" />
    <glyph glyph-name="L" unicode="L" 
d="M87 700h84v-622h366v-78h-450v700z" />
    <glyph glyph-name="M" unicode="M" 
d="M46 700h160l94 -664h12l94 664h160v-700h-78v664h-12l-94 -664h-152l-94 664h-12v-664h-78v700z" />
    <glyph glyph-name="N" unicode="N" 
d="M443 36h12v664h84v-700h-168l-202 664h-12v-664h-84v700h168z" />
    <glyph glyph-name="O" unicode="O" 
d="M60 428q0 135 65 211q65 75 181 75t181 -75q65 -76 65 -211v-156q0 -139 -65 -213q-64 -73 -181 -73t-181 73q-65 74 -65 213v156zM306 64q81 0 122 56q40 55 40 158v144q0 97 -40 155q-41 59 -122 59t-122 -59q-40 -58 -40 -155v-144q0 -103 40 -158q41 -56 122 -56z
" />
    <glyph glyph-name="P" unicode="P" 
d="M169 288v-288h-84v700h250q51 0 94 -16q39 -14 67 -41q26 -24 40 -61q13 -33 13 -72v-30q0 -40 -13 -73t-41 -61q-27 -27 -67 -42q-43 -16 -93 -16h-166zM169 366h156q140 0 140 120v18q0 53 -35 86q-33 32 -105 32h-156v-256z" />
    <glyph glyph-name="Q" unicode="Q" 
d="M60 428q0 135 65 211q65 75 181 75t181 -75q65 -76 65 -211v-156q0 -128 -54 -200q-55 -73 -153 -84v-42q0 -30 27 -30h84v-72h-112q-35 0 -56 22t-21 56v66q-99 12 -153 84t-54 200v156zM306 64q81 0 122 56q40 55 40 158v144q0 97 -40 155q-41 59 -122 59t-122 -59
q-40 -58 -40 -155v-144q0 -103 40 -158q41 -56 122 -56z" />
    <glyph glyph-name="R" unicode="R" 
d="M525 0h-84v234q0 26 -12 40t-42 14h-218v-288h-84v700h250q51 0 94 -16q39 -14 67 -41q26 -24 40 -61q13 -33 13 -72v-30q0 -39 -21 -78q-21 -38 -67 -60v-12q31 -5 47 -24q17 -20 17 -54v-252zM169 366h156q71 0 105 30q35 30 35 90v18q0 53 -35 86q-33 32 -105 32h-156
v-256z" />
    <glyph glyph-name="S" unicode="S" 
d="M471 498q0 35 -13 60q-14 26 -37 43t-53 26t-63 9q-28 0 -55 -8q-25 -7 -46 -21q-21 -13 -33 -35q-12 -21 -12 -47v-6q0 -28 12 -49q13 -22 35 -36q24 -15 59 -24q28 -7 82 -16q110 -17 162 -64q52 -48 52 -128v-12q0 -44 -15 -82q-15 -37 -46 -65q-29 -26 -76 -42
q-45 -15 -104 -15q-66 0 -118 20t-86 54q-36 36 -53 80q-18 46 -18 102v30h84v-24q0 -92 51 -138q50 -46 140 -46q80 0 118 34q39 35 39 92v6q0 55 -41 84t-131 42q-56 8 -95 22q-46 16 -73 38q-30 24 -46 56t-16 78v12q0 39 17 75q15 31 48 59q28 24 72 38t94 14
q58 0 106 -17q46 -17 78 -45q31 -28 48 -68t17 -80v-42h-84v36z" />
    <glyph glyph-name="T" unicode="T" 
d="M60 700h492v-78h-204v-622h-84v622h-204v78z" />
    <glyph glyph-name="U" unicode="U" 
d="M150 700v-464q0 -83 40 -128q39 -44 116 -44t116 44q40 45 40 128v464h84v-464q0 -122 -64 -186t-176 -64t-176 64t-64 186v464h84z" />
    <glyph glyph-name="V" unicode="V" 
d="M27 700h90l183 -664h12l183 664h90l-198 -700h-162z" />
    <glyph glyph-name="W" unicode="W" 
d="M530 0h-153l-65 664h-12l-65 -664h-153l-71 700h76l67 -664h12l63 664h154l63 -664h12l67 664h76z" />
    <glyph glyph-name="X" unicode="X" 
d="M140 700l157 -310h18l157 310h92l-175 -343v-12l175 -345h-92l-157 312h-18l-157 -312h-92l175 345v12l-175 343h92z" />
    <glyph glyph-name="Y" unicode="Y" 
d="M264 246h-18l-219 454h94l179 -382h12l179 382h94l-219 -454h-18v-246h-84v246z" />
    <glyph glyph-name="Z" unicode="Z" 
d="M77 700h468v-126l-420 -484v-12h432v-78h-504v126l420 484v12h-396v78z" />
    <glyph glyph-name="bracketleft" unicode="[" 
d="M264 778q0 32 22 56q21 22 55 22h97v-72h-69q-27 0 -27 -30v-808q0 -30 27 -30h69v-72h-97q-34 0 -55 22q-22 24 -22 56v856z" />
    <glyph glyph-name="backslash" unicode="\" 
d="M487 -84l-71 -22l-291 890l70 22z" />
    <glyph glyph-name="bracketright" unicode="]" 
d="M348 -78q0 -32 -22 -56q-21 -22 -55 -22h-97v72h69q27 0 27 30v808q0 30 -27 30h-69v72h97q34 0 55 -22q22 -24 22 -56v-856z" />
    <glyph glyph-name="asciicircum" unicode="^" 
d="M540 424h-92l-136 246h-12l-136 -246h-92l158 276h152z" />
    <glyph glyph-name="underscore" unicode="_" 
d="M73 -48h466v-72h-466v72z" />
    <glyph glyph-name="grave" unicode="`" 
d="M316 688l66 -118h-72l-84 118h90z" />
    <glyph glyph-name="a" unicode="a" 
d="M447 84h-12q-24 -49 -67 -74q-42 -24 -89 -24q-50 0 -91 16q-42 17 -74 50q-31 32 -49 79t-18 109v16q0 62 18 108q19 48 49 80t74 49q43 17 89 17q52 0 93 -22q40 -21 65 -70h12v78h78v-394q0 -30 27 -30h25v-72h-53q-35 0 -56 22q-21 23 -21 56v6zM287 60q36 0 65 13
t50 37q20 23 33 58q12 33 12 74v12q0 41 -12 74t-33 57q-20 22 -52 37q-31 14 -63 14q-37 0 -64 -13q-32 -15 -51 -37q-22 -25 -33 -56q-12 -33 -12 -74v-16q0 -84 45 -132t115 -48z" />
    <glyph glyph-name="b" unicode="b" 
d="M147 0h-78v700h78v-282h12q25 44 72 68t100 24q45 0 87 -17q39 -16 72 -49q32 -32 50 -79q19 -49 19 -107v-20q0 -62 -18 -108q-19 -49 -49 -79q-33 -33 -74 -49t-89 -16q-23 0 -49 6q-32 8 -48 16q-21 11 -41 28q-16 14 -32 40h-12v-76zM313 60q36 0 66 12q28 11 53 36
q21 21 34 56q13 36 13 74v20q0 36 -13 72q-12 32 -34 56q-21 22 -54 37q-29 13 -65 13q-34 0 -65 -14q-30 -13 -52 -37t-36 -57q-13 -32 -13 -74v-12q0 -42 13 -74q14 -35 36 -58q22 -24 52 -37q29 -13 65 -13z" />
    <glyph glyph-name="c" unicode="c" 
d="M551 176q-8 -42 -27 -76t-50 -60q-32 -27 -70 -40q-42 -14 -89 -14q-51 0 -99 17q-47 17 -81 49q-33 32 -55 80q-21 46 -21 108v12q0 60 21 108q21 49 55 81q35 33 81 51t99 18q45 0 87 -14q38 -13 70 -40q31 -26 50 -60t27 -76l-78 -18q-3 26 -15 50q-15 30 -30 44
q-20 19 -48 29q-30 11 -65 11q-34 0 -67 -14q-32 -14 -56 -38q-25 -25 -38 -58t-13 -74v-12q0 -44 13 -76q14 -33 38 -56q26 -25 56 -36q32 -12 69 -12q38 0 65 12q26 12 46 30q20 19 32 42q10 19 15 50z" />
    <glyph glyph-name="d" unicode="d" 
d="M471 76h-12q-12 -23 -31 -40q-19 -18 -40 -28q-19 -10 -45 -16q-24 -6 -46 -6q-48 0 -93 17q-41 16 -76 49q-31 30 -50 80q-19 51 -19 108v16q0 61 19 108q19 46 51 80q31 32 75 49q45 17 91 17q51 0 95 -22t69 -70h12v282h78v-700h-78v76zM305 60q36 0 65 13
q30 13 52 37q22 23 36 58q13 32 13 74v12q0 42 -13 74q-14 33 -36 57t-52 37q-31 14 -65 14q-36 0 -65 -13q-33 -15 -54 -37q-22 -23 -34 -57q-13 -36 -13 -73v-16q0 -39 13 -75q12 -34 34 -57q22 -24 53 -36q30 -12 66 -12z" />
    <glyph glyph-name="e" unicode="e" 
d="M144 224q3 -75 46 -119q44 -45 120 -45q34 0 61 8q26 8 45 22q17 13 30 32q8 12 18 40l74 -20q-21 -68 -78 -112q-58 -44 -152 -44q-53 0 -98 18q-43 17 -76 53q-32 35 -50 81t-18 104v24q0 52 18 97q17 42 52 77t78 52q45 18 96 18q62 0 106 -22q42 -21 72 -56
q28 -33 42 -72q14 -40 14 -72v-64h-400zM310 436q-35 0 -62 -10q-29 -11 -50 -30q-21 -20 -34 -44q-13 -25 -18 -56h320q-1 31 -16 58q-14 27 -34 44q-18 16 -50 28q-26 10 -56 10z" />
    <glyph glyph-name="f" unicode="f" 
d="M82 496h153v126q0 33 21 56q21 22 56 22h196v-72h-168q-27 0 -27 -30v-102h207v-72h-207v-424h-78v424h-153v72z" />
    <glyph glyph-name="g" unicode="g" 
d="M464 76h-12q-24 -46 -66 -68q-41 -22 -90 -22t-94 17q-44 17 -78 49q-32 30 -52 80q-20 49 -20 108v16q0 59 20 108q18 45 53 80q32 32 77 49t92 17q54 0 94 -24q43 -25 64 -68h12v78h78v-618q0 -32 -22 -56q-21 -22 -55 -22h-323v72h295q27 0 27 30v174zM298 60
q36 0 65 13q32 14 53 37q20 21 35 58q13 32 13 74v12q0 42 -13 74q-14 35 -35 57t-54 37q-31 14 -64 14q-37 0 -66 -13q-30 -13 -52 -37q-25 -27 -36 -57q-12 -33 -12 -73v-16q0 -42 12 -75q11 -30 36 -57q23 -24 52 -36q30 -12 66 -12z" />
    <glyph glyph-name="h" unicode="h" 
d="M165 0h-78v700h78v-294h12q22 47 65 76q41 28 101 28q80 0 131 -54t51 -160v-296h-78v280q0 77 -35 117q-35 39 -95 39q-71 0 -111 -48q-41 -49 -41 -130v-258z" />
    <glyph glyph-name="i" unicode="i" 
d="M241 644q0 29 21 50q20 20 49 20t49 -20q21 -21 21 -50t-21 -50q-20 -20 -49 -20t-49 20q-21 21 -21 50zM99 72h174v352h-156v72h234v-424h162v-72h-414v72z" />
    <glyph glyph-name="j" unicode="j" 
d="M307 644q0 29 21 50q20 20 49 20t49 -20q21 -21 21 -50t-21 -50q-20 -20 -49 -20t-49 20q-21 21 -21 50zM141 496h276v-618q0 -34 -21 -56t-56 -22h-223v72h195q27 0 27 30v522h-198v72z" />
    <glyph glyph-name="k" unicode="k" 
d="M215 290h17l189 206h96v-6l-206 -227v-18l230 -239v-6h-96l-211 218h-19v-218h-78v700h78v-410z" />
    <glyph glyph-name="l" unicode="l" 
d="M87 72h180v556h-174v72h252v-628h180v-72h-438v72z" />
    <glyph glyph-name="m" unicode="m" 
d="M564 0h-78v356q0 36 -16 58t-51 22q-32 0 -53 -24t-21 -76v-336h-78v360q0 33 -18 54q-19 22 -48 22q-35 0 -55 -26t-20 -68v-342h-78v496h78v-54h12q14 37 38 52q25 16 59 16q36 0 59 -19q24 -20 33 -49h12q35 68 108 68q57 0 87 -36t30 -92v-382z" />
    <glyph glyph-name="n" unicode="n" 
d="M165 0h-78v496h78v-84h12q47 98 160 98q86 0 137 -54t51 -160v-296h-78v280q0 77 -35 117q-35 39 -95 39q-71 0 -111 -48q-41 -49 -41 -130v-258z" />
    <glyph glyph-name="o" unicode="o" 
d="M555 242q0 -62 -21 -110q-21 -49 -54 -80q-33 -32 -80 -49q-46 -17 -94 -17q-49 0 -95 17q-45 17 -79 49q-33 31 -54 80q-21 48 -21 110v12q0 60 21 108q22 50 54 81q35 34 80 50q46 17 94 17t94 -17q45 -16 80 -50q32 -31 54 -81q21 -48 21 -108v-12zM306 60q36 0 66 12
q31 12 54 37q22 24 36 57q13 32 13 76v12q0 42 -13 74q-14 33 -36 57q-22 23 -54 37q-33 14 -66 14t-66 -14q-32 -14 -54 -37q-22 -24 -36 -57q-13 -32 -13 -74v-12q0 -44 13 -76q14 -33 36 -57q23 -25 54 -37q30 -12 66 -12z" />
    <glyph glyph-name="p" unicode="p" 
d="M147 -200h-78v696h78v-78h12q25 44 72 68t100 24q45 0 87 -17q39 -16 72 -49q32 -32 50 -79q19 -49 19 -107v-20q0 -62 -18 -108q-19 -49 -49 -79q-33 -33 -74 -49t-89 -16q-23 0 -49 6q-32 8 -48 16q-21 11 -41 28q-16 14 -32 40h-12v-276zM313 60q36 0 66 12
q28 11 53 36q21 21 34 56q13 36 13 74v20q0 36 -13 72q-12 32 -34 56q-21 22 -54 37q-29 13 -65 13q-34 0 -65 -14q-30 -13 -52 -37t-36 -57q-13 -32 -13 -74v-12q0 -42 13 -74q14 -35 36 -58q22 -24 52 -37q29 -13 65 -13z" />
    <glyph glyph-name="q" unicode="q" 
d="M467 76h-12q-15 -26 -31 -40q-15 -14 -40 -28q-14 -8 -46 -16q-24 -6 -45 -6q-48 0 -93 17q-41 16 -76 49q-31 30 -50 80q-19 51 -19 108v16q0 61 19 108q19 46 51 80q31 32 75 49q45 17 91 17q51 0 95 -24t69 -68h12v78h78v-696h-78v276zM301 60q36 0 65 13q30 13 52 37
q22 23 36 58q13 32 13 74v12q0 42 -13 74q-14 33 -36 57t-52 37q-31 14 -65 14q-36 0 -65 -13q-33 -15 -54 -37q-22 -23 -34 -57q-13 -36 -13 -73v-16q0 -39 13 -75q12 -34 34 -57q22 -24 53 -36q30 -12 66 -12z" />
    <glyph glyph-name="r" unicode="r" 
d="M59 496h180v-66h12q19 40 54 60t80 20q75 0 121 -49t49 -143l-82 -12q0 70 -33 100t-81 30q-31 0 -53 -12q-23 -12 -38 -33q-14 -20 -22 -49q-7 -27 -7 -60v-210h126v-72h-318v72h114v352h-102v72z" />
    <glyph glyph-name="s" unicode="s" 
d="M190 368q0 -36 30 -55q29 -19 112 -25q87 -8 132 -42q46 -35 46 -100v-6q0 -37 -14 -64q-16 -31 -40 -49q-27 -21 -62 -31q-34 -10 -80 -10q-55 0 -100 16q-41 15 -68 40q-30 28 -42 58q-15 36 -16 66l74 18q5 -57 44 -92q38 -34 104 -34q53 0 88 22q34 22 34 60
q0 42 -33 60q-34 19 -107 23q-86 6 -132 40t-46 99v6q0 35 15 62q14 25 41 44q26 18 57 27t67 9q47 0 86 -14q37 -13 62 -34q23 -19 38 -50q14 -29 18 -56l-74 -18q-4 48 -38 75q-33 27 -88 27q-23 0 -40 -4q-19 -4 -35 -14q-16 -9 -24 -22q-9 -14 -9 -32z" />
    <glyph glyph-name="t" unicode="t" 
d="M70 496h156v204h78v-204h192v-72h-192v-322q0 -30 27 -30h141v-72h-169q-34 0 -55 22q-22 24 -22 56v346h-156v72z" />
    <glyph glyph-name="u" unicode="u" 
d="M441 496h78v-496h-78v90h-12q-24 -47 -63 -76q-38 -28 -99 -28q-39 0 -75 14q-37 15 -60 40q-25 28 -38 67t-13 93v296h78v-286q0 -77 32 -114q31 -36 98 -36q71 0 111 48q41 49 41 130v258z" />
    <glyph glyph-name="v" unicode="v" 
d="M382 0h-154l-173 496h92l152 -460h12l152 460h92z" />
    <glyph glyph-name="w" unicode="w" 
d="M516 0h-144l-60 460h-12l-60 -460h-144l-78 496h80l66 -460h12l58 460h144l58 -460h12l66 460h80z" />
    <glyph glyph-name="x" unicode="x" 
d="M440 496h89l-146 -236v-12l158 -248h-91l-135 218h-18l-135 -218h-91l158 248v12l-146 236h89l125 -206h18z" />
    <glyph glyph-name="y" unicode="y" 
d="M447 90h-12q-24 -47 -63 -76q-38 -28 -99 -28q-39 0 -75 14q-37 15 -60 40q-25 28 -38 67t-13 93v296h78v-286q0 -77 32 -114q31 -36 98 -36q71 0 111 48q41 49 41 130v258h78v-618q0 -34 -21 -56t-56 -22h-283v72h255q27 0 27 30v188z" />
    <glyph glyph-name="z" unicode="z" 
d="M523 72v-72h-432v124l354 288v12h-348v72h414v-120l-356 -292v-12h368z" />
    <glyph glyph-name="braceleft" unicode="{" 
d="M278 778q0 32 22 56q21 22 55 22h97v-72h-69q-27 0 -27 -30v-320q0 -32 -22 -56q-21 -22 -56 -22h-12v-12h12q35 0 56 -22q22 -24 22 -56v-320q0 -30 27 -30h69v-72h-97q-34 0 -55 22q-22 24 -22 56v345q0 29 -27 29h-51v108h51q27 0 27 29v345z" />
    <glyph glyph-name="bar" unicode="|" 
d="M342 -156h-72v1012h72v-1012z" />
    <glyph glyph-name="braceright" unicode="}" 
d="M334 433q0 -29 27 -29h51v-108h-51q-27 0 -27 -29v-345q0 -32 -22 -56q-21 -22 -55 -22h-97v72h69q27 0 27 30v320q0 32 22 56q21 22 56 22h12v12h-12q-35 0 -56 22q-22 24 -22 56v320q0 30 -27 30h-69v72h97q34 0 55 -22q22 -24 22 -56v-345z" />
    <glyph glyph-name="asciitilde" unicode="~" 
d="M338 316q1 -3 7 -16q5 -9 16 -9q8 0 20 9l129 95l38 -50l-123 -94q-16 -13 -29 -19q-16 -8 -39 -8q-40 0 -56 20q-18 23 -28 56q-1 6 -7 18q-5 10 -16 10q-9 0 -23 -11l-126 -93l-38 50l123 94q17 14 31 20q15 7 37 7q38 0 56 -21q17 -20 28 -58z" />
  </font>
</defs>
</svg>
